<?xml version="1.0" encoding="UTF-8"?>
<svg id="Layer_1" data-name="Layer 1" xmlns="http://www.w3.org/2000/svg" viewBox="0 0 719.5 400">
  <defs>
    <style>
      .cls-1 {
        fill: #0072ce;
      }

      .cls-1, .cls-2 {
        stroke-width: 0px;
      }

      .cls-2 {
        fill: #171c8f;
      }
    </style>
  </defs>
  <path class="cls-1" d="M253.5,113.56c0-9.43,3.14-12.91,11.91-12.91,3.97,0,7.45.66,10.26,1.49v-16.88c-3.14-.83-7.11-1.99-15.55-1.99-18.7,0-28.3,11.09-28.3,29.12v12.91h-14.67l-6.5,17.87h21.18v65.03h21.68l.04-65.03h19.9v-17.87h-19.94v-11.75Z"/>
  <path class="cls-2" d="M231.83,258.81c0-18.41-7.3-29.85-23.38-29.85-13.27,0-23.38,8.29-28.19,23.05h-1.16c-1.33-13.27-8.79-23.05-23.05-23.05s-24.05,8.79-28.52,23.88h-1.18c-2.99-10.02-8.47-18.55-17.75-21.73-2.51-.86-5.29-1.33-8.37-1.33h-17.1v18.86h21.68v65.55h23.05v-42.29c.06-2.69.37-5.12.87-7.34,2.43-10.82,9.61-16.2,17.04-16.2s11.28,3.32,11.28,16.75v49.09h23.05v-43.28c1.66-16.75,10.28-22.56,18.41-22.56s10.12,5.64,10.12,16.75v27.45c0,13.18,8.52,22.3,23.22,23.05v-56.79Z"/>
  <polygon class="cls-2" points="361.01 295.96 404.56 248.96 404.56 231.37 404.56 231.37 404.56 230.96 337.79 230.96 337.79 248.21 381.91 248.21 336.07 297.29 336.07 314.05 405.56 314.05 405.55 295.96 361.01 295.96"/>
  <path class="cls-2" d="M468.47,297.59c-3.87,11.01-14.13,16.64-26.1,16.64-15.96,0-25.11-7.49-25.11-21.29,0-15.79,12.47-22.28,29.76-25.77,14.3-2.99,20.62-4.49,21.28-6.32v-1.83c0-7.98-3.99-12.8-14.13-12.8s-16.29,5.98-18.95,12.14l-17.29-9.31c5.99-12.3,20.62-19.95,38.57-19.95,23.44,0,34.42,10.97,34.42,31.26v26.93c0,17.29,1.99,24.4,4.82,26.73h-23.11c-2-1.83-3.66-6.94-4.16-16.42ZM468.87,283.41v-12.82h0c-2.25,2.08-4.99,2.89-10.97,4.72-11.31,3.16-17.12,6.1-17.12,13.59,0,6.65,4.66,10.31,10.14,10.31,8.31,0,16.29-6.15,17.96-15.79Z"/>
  <path class="cls-1" d="M280.02,165.68c0-24.29,15.12-42.47,41.35-42.47s40.06,16.41,40.06,41.67-15.12,43.11-41.18,43.11-40.22-16.57-40.22-42.31ZM338.42,165.2c0-16.41-5.79-25.46-17.37-25.46s-17.7,9.05-17.7,25.3,5.63,26.26,17.05,26.26,18.02-9.37,18.02-26.1Z"/>
  <path class="cls-1" d="M441.03,125.28h21.67l18.51,60.26h.99l18.18-60.36h22.03l-29.84,82.9-21.41-.09-30.14-82.72Z"/>
  <path class="cls-1" d="M429.77,125.47c-14.15,0-25.59,8.95-27.79,25.89h-.69s.84-14.27.84-14.27l-.02-11.82h-29.12l-6.29,17.17h16.25v65.54h21.04v-30.48c0-18.61,2.24-26.83,20.8-26.83h6.05v-25.21h-1.08Z"/>
  <path class="cls-2" d="M564.1,230.91c-14.29,0-25.84,9.04-28.06,26.14h-.69s.85-14.41.85-14.41l-.02-11.93h-29.4l-6.35,17.33h16.41v66.18h21.25v-30.77c0-18.79,2.26-27.09,21-27.09h6.11v-25.45h-1.09Z"/>
  <polygon class="cls-1" points="513.49 208.09 535.37 208.09 565.55 125.19 543.66 125.19 513.49 208.09"/>
  <path class="cls-2" d="M295.93,297.57c-3.88,11.03-14.15,16.66-26.14,16.66-15.99,0-25.14-7.51-25.14-21.33,0-15.82,12.49-22.31,29.81-25.81,14.32-3,20.65-4.5,21.31-6.33v-1.83c0-7.99-4-12.82-14.15-12.82s-16.32,5.99-18.98,12.16l-17.32-9.32c5.99-12.32,20.65-19.98,38.63-19.98,23.48,0,34.47,10.99,34.47,31.3v26.97c0,17.32,2,24.44,4.83,26.77h-23.14c-2-1.83-3.66-6.96-4.16-16.45ZM296.33,283.36v-12.83h0c-2.26,2.09-5,2.89-10.99,4.72-11.32,3.16-17.15,6.11-17.15,13.61,0,6.66,4.66,10.32,10.16,10.32,8.33,0,16.32-6.16,17.98-15.82Z"/>
  <path class="cls-2" d="M569.93,298.65l13.19-11.26c4.67,7.24,11.42,11.58,19.95,11.58,5.95,0,10.62-2.57,10.62-7.4,0-6.43-8.37-9.17-20.43-13.35-10.3-3.7-20.27-9.81-20.27-23.33s11.91-24.13,32.02-24.13c15.77,0,24.61,5.79,30.57,13.84l-13.35,11.58c-2.09-4.02-7.4-9.97-16.25-9.97-6.43,0-10.46,3.22-10.46,7.4,0,6.44,8.53,9.01,18.5,12.55,11.42,4.02,22.36,9.33,22.36,24.45s-12.71,24.13-32.98,24.13c-13.84,0-27.03-5.47-33.46-16.09Z"/>
  <path class="cls-1" d="M569.93,193.02l13.19-11.26c4.67,7.24,11.42,11.58,19.95,11.58,5.95,0,10.62-2.57,10.62-7.4,0-6.43-8.37-9.17-20.43-13.35-10.3-3.7-20.27-9.81-20.27-23.33s11.91-24.13,32.02-24.13c15.77,0,24.61,5.79,30.57,13.84l-13.35,11.58c-2.09-4.02-7.4-9.97-16.25-9.97-6.43,0-10.46,3.22-10.46,7.4,0,6.44,8.53,9.01,18.5,12.55,11.42,4.02,22.36,9.33,22.36,24.45s-12.71,24.13-32.98,24.13c-13.84,0-27.03-5.47-33.46-16.09Z"/>
</svg>